<svg xmlns:xlink="http://www.w3.org/1999/xlink" 
    xmlns="http://www.w3.org/2000/svg" 
    viewBox="0 0 320 66.37459665265108" 
    height="66.37459665265108" 
    width="320" 
    style="
        width: 320px; 
        height: 66.3746px; 
        position: absolute; 
        top: 50%; 
        left: 50%; 
        transform: 
            translate(-50%, -50%) 
            scale(0.599844); 
            z-index: 0;
            cursor: pointer;"
    >
    <defs id="SvgjsDefs1034"></defs>
    <g 
        id="SvgjsG1035" 
        featurekey="symbolFeature-0" 
        transform="matrix(0.11379152758736125,0,0,0.11379152758736125,0,-5.211651876685099)" 
        fill="#ffffff"
    >
        <g 
            xmlns="http://www.w3.org/2000/svg" 
            fill="#ffffff">    
            <path 
                d="M587.1,45.8c-52.2,0-103.5,13.8-148.2,40.5c-43.8-25.9-95.1-40.5-147.2-40.5C130.8,45.8,0,176.5,0,337.4         c0,160.9,130.8,291.7,291.7,291.7c52,0,103.1-13.7,147.7-40.2c44.6,26.5,95.7,40.2,147.7,40.2c160.9,0,291.7-130.8,291.7-291.7         C878.8,176.5,748,45.8,587.1,45.8z M439.4,559.9c-46.1-30.9-80.6-74-100.4-123.3l113.7,113.7C448.4,553.6,443.9,556.8,439.4,559.9z          M473.4,532.7L323.8,383.2c-2.6-15-3.9-30.3-3.9-45.8c0-3.6,0.1-7.2,0.2-10.8l178.4,179.1C490.8,515.3,482.4,524.3,473.4,532.7z          M514.7,483.7L323.8,292.1c2.5-14.5,6.1-28.6,10.9-42.3l199.2,199.2C528.3,461,521.9,472.6,514.7,483.7z M544.6,421.5L345.8,222.6         c5.5-11.5,11.8-22.6,18.9-33.3l190.1,190.1C552.5,393.8,549.1,407.9,544.6,421.5z M380.9,167.4c7.9-9.6,16.5-18.7,25.8-27.3         l146.6,146.6c3.1,16.5,4.7,33.4,4.7,50.7c0,2.3,0,4.6-0.1,7L380.9,167.4z M427.6,122.8c3.7-2.8,7.6-5.5,11.5-8.2         c44.6,29.3,78.1,70.3,98,117.6L427.6,122.8z M24.5,337.4C24.5,189.7,144,70.2,291.7,70.2c44.2,0,86.6,10.3,125.1,31         c-76.2,54.6-120.4,142.1-120.4,236.2S341.6,519,416.8,573.6c-38.6,20.7-81.9,31-125.1,31C144,604.7,24.5,485.2,24.5,337.4z          M587.1,604.7c-44.2,0-86.6-10.3-125.1-31c76.2-54.6,120.4-142.1,120.4-236.2S538.2,155.8,462,101.3c38.6-20.7,80.9-31,125.1-31         c147.7,0,267.2,119.5,267.2,267.2C854.4,485.2,734.9,604.7,587.1,604.7z" 
                fill="#ffffff"
            ></path>
        </g>
    </g>
    <g 
        id="SvgjsG1036" 
        featurekey="nameFeature-0" 
        transform="matrix(1.1598236903757781,0,0,1.1598236903757781,119.30410755552504,-1.4075623474253849)" 
        fill="#ffffff"
    >
        <path 
            d="M24 34.72 c2.36 3.24 3.88 4.12 5.96 5.16 l0 0.12 l-8.64 0 l0 -0.68 l-7.52 -10.6 l-4.68 0 l0 9 c0 1.44 1.4 1.88 3.04 2.08 l0 0.2 l-11.56 0 l0 -0.2 c1.64 -0.2 3.04 -0.64 3.04 -2.08 l0 -23.44 c0 -1.44 -1.4 -1.88 -3.04 -2.08 l0 -0.2 l15.08 0 c7.16 0 11.28 2.36 11.28 7.56 c0 4 -2.96 7.2 -7.8 8.52 z M9.12 12.719999999999999 l0 14.44 c2.08 0.6 4.28 0.92 6.36 0.92 c4.04 0 6.08 -1.32 6.08 -6.88 c0 -4.24 -1.2 -8.48 -8.04 -8.48 l-4.4 0 z M50.400000000000006 36.08 l0.2 0.16 c-1.2 2.24 -4.44 4.04 -8.68 4.04 c-6.4 0 -10.76 -3.96 -10.76 -9.68 c0 -6.44 5.56 -10.24 11.52 -10.24 c8.64 0 9.36 8.52 4.24 8.52 l-10.56 0 c0.08 5.68 3.32 9.44 8.12 9.44 c1.92 0 4.68 -0.6 5.92 -2.24 z M41.36 21 c-2.72 0 -4.84 2.72 -5 7.2 l8.04 -0.08 c2.72 -0.04 1.6 -7.12 -3.04 -7.12 z M68.60000000000001 40 l0.24 -2.76 l0 -9.52 c0 -4.48 -1.6 -5.52 -3.48 -5.52 c-2.48 0 -4.44 1.6 -5.96 2.72 l0 11.36 c0 2.16 0.36 2.92 1.56 3.72 l-6.88 0 l0.24 -2.76 l0 -15.36 c-0.56 -0.36 -1.6 -0.64 -2.44 -0.72 l0 -0.16 l7.72 -0.6 l-0.2 2.96 l0 0.6 c1.84 -1.28 5 -3.6 8.6 -3.6 c2.52 0 5.92 1.24 5.92 7.28 l0 8.64 c0 2.16 0.36 2.92 1.56 3.72 l-6.88 0 z M84.44000000000001 40.64 l-4.36 -1 l0.12 -2.4 l0 -18.64 c0 -1.68 -1.04 -1.44 -3.72 -0.68 l0 -0.24 l9.12 -4.24 l-0.32 1.84 l0 5.32 l4.92 0 l-0.2 0.96 l-4.72 0 l0 17.72 l5.52 -0.16 l0 0.16 l-5.52 1.36 l-0.84 0 z M97.00000000000001 17.44 c-1.64 0 -2.92 -1.28 -2.92 -2.96 c0 -1.64 1.28 -2.92 2.92 -2.92 s2.92 1.28 2.92 2.92 c0 1.68 -1.28 2.96 -2.92 2.96 z M94.4 40 l0.24 -2.76 l0 -15.36 c-0.56 -0.36 -1.6 -0.64 -2.44 -0.72 l0 -0.16 l7.72 -0.6 l-0.2 2.96 l0 12.92 c0 2.16 0.36 2.92 1.56 3.72 l-6.88 0 z M118.12000000000002 20.6 l6.08 0 l0 0.16 c-1.28 0.48 -2.16 1.24 -3.72 4.68 l-6.84 15.04 l-0.24 0 l-8.28 -17.16 l-1.64 -2.72 l9.64 0 l0 0.16 c-2 0.24 -3.72 1.2 -2.08 4.64 l4.48 9.24 l4.2 -9.24 c1.52 -3.44 -0.16 -4.16 -1.6 -4.64 l0 -0.16 z M130.20000000000002 17.44 c-1.64 0 -2.92 -1.28 -2.92 -2.96 c0 -1.64 1.28 -2.92 2.92 -2.92 s2.92 1.28 2.92 2.92 c0 1.68 -1.28 2.96 -2.92 2.96 z M127.60000000000001 40 l0.24 -2.76 l0 -15.36 c-0.56 -0.36 -1.6 -0.64 -2.44 -0.72 l0 -0.16 l7.72 -0.6 l-0.2 2.96 l0 12.92 c0 2.16 0.36 2.92 1.56 3.72 l-6.88 0 z M143.44 40.64 l-4.36 -1 l0.12 -2.4 l0 -18.64 c0 -1.68 -1.04 -1.44 -3.72 -0.68 l0 -0.24 l9.12 -4.24 l-0.32 1.84 l0 5.32 l4.92 0 l-0.2 0.96 l-4.72 0 l0 17.72 l5.52 -0.16 l0 0.16 l-5.52 1.36 l-0.84 0 z M166.88 20.6 l6.16 0 l0 0.16 c-1.28 0.48 -2.24 1.16 -3.72 4.68 l-7.04 16.72 c-1.24 2.92 -2.44 5.84 -6.56 5.84 l-1.52 -1.76 c3.32 0 6 -1.2 7.32 -4.28 l0.08 -0.2 l-8.32 -18.44 l-1.48 -2.72 l9.4 0 l0 0.16 c-2 0.24 -3.6 1.2 -2.08 4.64 l4.8 10.96 l4.64 -10.96 c1.44 -3.44 -0.24 -4.16 -1.68 -4.64 l0 -0.16 z" 
            fill="#ffffff"
        ></path>
    </g>
</svg>